<?xml version="1.0" standalone="no"?>
<!DOCTYPE svg PUBLIC "-//W3C//DTD SVG 20010904//EN"
 "http://www.w3.org/TR/2001/REC-SVG-20010904/DTD/svg10.dtd">
<svg version="1.0" xmlns="http://www.w3.org/2000/svg"
 width="1280.000000pt" height="806.000000pt" viewBox="0 0 1280.000000 806.000000"
 preserveAspectRatio="xMidYMid meet">
<metadata>
Created by potrace 1.15, written by Peter Selinger 2001-2017
</metadata>
<g transform="translate(0.000000,806.000000) scale(0.100000,-0.100000)"
fill="#000000" stroke="none">
<path d="M5420 8053 c-712 -30 -1050 -84 -1515 -238 -217 -72 -346 -125 -560
-230 -410 -202 -734 -414 -1430 -940 -360 -271 -630 -468 -800 -582 -291 -195
-672 -399 -956 -511 -175 -69 -175 -62 -2 -107 334 -87 632 -39 940 153 100
62 199 136 403 302 199 162 873 694 1061 837 538 410 909 602 1423 738 860
227 2079 254 3331 74 368 -53 499 -88 1095 -294 740 -256 1009 -319 1355 -319
137 1 190 5 275 23 172 36 360 123 461 211 l44 39 -180 1 c-528 1 -939 92
-1740 385 -434 158 -648 220 -1030 299 -550 112 -1164 168 -1815 164 -162 -1
-324 -3 -360 -5z"/>
<path d="M5790 6874 c-696 -32 -1366 -146 -1811 -307 -247 -90 -700 -303
-1004 -472 -502 -279 -1061 -651 -1475 -979 -182 -145 -317 -239 -410 -286
-126 -64 -189 -74 -615 -100 -237 -14 -366 -53 -445 -135 l-32 -33 54 -40
c188 -142 377 -202 637 -202 188 0 307 18 746 110 420 88 468 94 755 95 377 0
418 -12 860 -265 107 -62 283 -157 390 -212 329 -169 441 -239 550 -348 53
-52 158 -174 235 -270 165 -208 161 -204 431 -490 514 -544 1123 -1078 1702
-1494 748 -537 1742 -1072 2362 -1271 583 -187 1305 -226 1850 -99 398 92 799
310 983 533 216 262 341 599 354 949 6 173 -6 290 -44 421 -53 184 -132 316
-285 477 -168 175 -346 273 -588 325 -144 30 -373 31 -510 2 -273 -59 -457
-188 -526 -368 -14 -37 -19 -75 -19 -145 1 -145 41 -247 134 -333 91 -85 200
-123 329 -115 100 7 178 37 242 95 70 63 101 127 107 222 7 106 -7 147 -78
232 -33 39 -58 74 -55 76 8 9 181 -17 254 -37 248 -69 442 -227 542 -443 54
-118 65 -172 64 -322 -1 -145 -23 -240 -88 -381 -75 -161 -167 -277 -299 -376
-195 -145 -411 -227 -691 -264 -153 -20 -578 -15 -766 10 -522 68 -944 216
-1508 528 -511 283 -1000 599 -1397 905 -312 239 -1052 887 -1250 1094 -93 97
-245 278 -245 292 0 5 10 7 23 3 52 -13 454 -66 607 -81 464 -43 1073 -37
1570 16 821 86 1624 266 2755 616 187 58 357 110 378 116 21 5 35 13 30 17
-18 18 -177 42 -304 47 -165 7 -279 -4 -628 -62 -371 -61 -651 -90 -651 -68 0
5 25 41 55 80 138 178 286 451 394 727 57 147 162 458 196 584 10 34 21 62 26
62 4 0 47 -30 96 -67 431 -326 987 -601 1433 -708 304 -73 637 -74 866 -4 231
71 446 215 545 366 125 192 189 468 175 753 -9 183 -9 184 -64 108 -61 -86
-203 -223 -287 -279 -231 -153 -457 -218 -795 -226 -224 -6 -393 9 -635 58
-428 85 -739 190 -1694 571 -721 288 -963 379 -1261 477 -543 177 -894 252
-1385 296 -161 15 -723 27 -885 19z m675 -594 c118 -14 233 -44 305 -80 50
-25 61 -35 69 -67 29 -102 5 -234 -64 -359 l-34 -60 -73 -17 c-284 -66 -527
-35 -664 85 -78 69 -114 159 -114 289 0 79 2 91 23 109 89 85 318 126 552 100z
m2044 -235 c152 -49 268 -94 396 -154 l108 -51 -6 -123 c-13 -244 -66 -445
-172 -655 -300 -590 -984 -995 -1890 -1119 -187 -26 -703 -26 -895 0 -523 71
-994 260 -1319 531 -340 284 -539 661 -581 1102 -11 118 -11 241 -1 289 9 44
70 57 232 49 l126 -7 6 -126 c21 -440 201 -782 546 -1042 114 -85 323 -197
461 -247 735 -266 1645 -174 2241 226 338 227 535 506 610 865 23 109 32 355
16 450 -5 27 -4 47 1 47 5 0 59 -16 121 -35z m-5169 -655 c58 -455 98 -643
169 -795 l40 -85 -44 0 c-107 0 -274 45 -585 158 -340 123 -492 160 -703 170
l-127 7 31 38 c109 132 354 303 744 519 143 80 298 169 345 200 55 35 87 51
92 44 3 -6 20 -121 38 -256z"/>
</g>
</svg>
