<?xml version="1.0" standalone="no"?>
<!DOCTYPE svg PUBLIC "-//W3C//DTD SVG 20010904//EN"
 "http://www.w3.org/TR/2001/REC-SVG-20010904/DTD/svg10.dtd">
<svg version="1.0" xmlns="http://www.w3.org/2000/svg"
 width="756.000000pt" height="1280.000000pt" viewBox="0 0 756.000000 1280.000000"
 preserveAspectRatio="xMidYMid meet">
<metadata>
Created by potrace 1.15, written by Peter Selinger 2001-2017
</metadata>
<g transform="translate(0.000000,1280.000000) scale(0.100000,-0.100000)"
fill="#000000" stroke="none">
<path d="M3357 12789 c-59 -14 -87 -32 -166 -109 -79 -77 -77 -76 -164 -54
-24 6 -35 -1 -86 -49 -32 -31 -70 -59 -85 -63 -29 -7 -98 -2 -216 16 -86 13
-259 6 -395 -16 -149 -23 -360 -87 -419 -127 -69 -47 -84 -54 -136 -62 -98
-15 -120 -26 -195 -93 -67 -62 -86 -73 -217 -125 -201 -80 -252 -113 -402
-257 -209 -201 -239 -233 -279 -301 -36 -61 -38 -67 -32 -124 13 -125 13 -127
-20 -145 -65 -36 -67 -83 -11 -202 43 -91 46 -139 12 -173 -13 -13 -40 -27
-60 -31 -53 -9 -255 -208 -291 -285 -13 -30 -25 -61 -25 -69 0 -8 -15 -37 -34
-65 -40 -57 -56 -132 -56 -260 0 -62 -7 -102 -31 -178 l-32 -97 24 -121 23
-121 -19 -86 c-16 -70 -19 -117 -17 -237 1 -110 -2 -170 -14 -223 -21 -92 -15
-120 41 -195 25 -34 45 -70 45 -81 0 -12 -9 -45 -20 -74 -15 -38 -20 -76 -20
-145 0 -106 2 -110 91 -202 50 -51 64 -75 99 -166 34 -90 50 -117 101 -173 49
-53 64 -77 76 -124 19 -74 37 -102 67 -102 32 0 62 37 127 156 44 78 65 105
117 146 34 28 77 71 94 97 45 67 78 100 120 122 69 35 105 76 133 148 14 38
34 75 43 84 26 22 149 96 227 137 109 56 123 68 166 141 22 38 54 79 72 93 40
30 197 104 314 146 178 66 211 90 318 229 93 123 116 144 196 180 37 17 102
55 144 86 43 31 147 89 230 130 126 61 160 83 195 122 45 52 74 72 104 73 11
0 43 27 73 60 46 51 72 68 181 121 70 34 168 90 217 124 50 34 146 91 215 125
69 34 151 82 182 107 64 49 131 82 166 83 12 0 37 6 55 14 39 16 199 149 211
175 7 16 22 20 85 22 76 4 79 5 145 56 52 40 80 54 124 63 107 20 133 31 187
80 75 68 87 73 200 77 129 6 150 14 191 79 19 30 44 59 57 66 14 8 61 13 128
13 105 0 105 0 160 37 30 20 72 40 94 43 22 4 91 20 154 36 62 16 139 29 171
29 50 0 65 5 111 36 30 20 71 42 91 50 20 7 47 19 60 26 13 7 54 12 91 13 59
0 71 3 87 23 10 12 21 22 23 22 3 0 18 5 33 11 l28 10 -41 25 c-23 13 -61 51
-86 83 -37 50 -49 77 -72 170 l-27 110 -74 41 c-182 100 -474 360 -525 467
l-24 52 -122 1 c-217 0 -305 21 -535 128 -241 112 -330 125 -873 127 -315 2
-454 6 -555 19 -146 17 -263 19 -323 5z"/>
<path d="M6330 11306 c-705 -158 -2369 -1014 -3755 -1932 -897 -594 -1564
-1139 -1856 -1517 -123 -159 -118 -144 -150 -430 -67 -608 -177 -1673 -239
-2317 -281 -2946 -352 -4612 -209 -4907 45 -93 198 -143 550 -180 202 -21
1040 -24 1409 -5 618 33 1299 83 1935 142 481 46 1376 140 1384 146 2 2 -50
110 -116 241 -389 779 -623 1567 -719 2428 -14 122 -18 285 -21 862 l-5 711
129 -49 c803 -309 1440 -377 1805 -193 37 19 83 49 102 68 85 86 112 278 97
691 -4 107 -3 126 17 175 30 75 90 153 127 163 100 29 166 92 181 174 10 56
-2 80 -67 125 -71 50 -75 43 80 121 57 29 116 66 131 84 53 60 60 181 15 250
-11 17 -19 50 -20 87 -2 42 -12 84 -34 136 -49 115 -48 116 109 248 249 208
350 324 350 402 0 85 -70 234 -285 611 -274 479 -284 502 -310 734 -16 136
-21 835 -7 835 70 3 266 21 270 24 12 13 -43 536 -83 796 -70 442 -153 748
-270 985 -68 140 -136 232 -205 280 -40 28 -51 30 -139 32 -70 2 -124 -4 -201
-21z m130 -2146 c4 0 22 33 40 73 l32 72 41 -80 c46 -92 45 -94 67 67 7 53 16
95 20 93 4 -2 12 -30 19 -62 7 -32 17 -75 22 -96 l10 -38 88 6 87 7 0 -358 c0
-456 17 -617 84 -779 17 -40 105 -202 196 -361 205 -357 288 -517 315 -605
l21 -69 -21 -43 c-25 -52 -141 -168 -318 -316 -127 -107 -163 -149 -163 -188
1 -10 9 -40 19 -68 10 -27 28 -76 40 -109 27 -71 21 -116 -14 -116 -73 0 -243
-75 -451 -198 -140 -83 -191 -107 -326 -151 -99 -33 -148 -62 -148 -86 0 -8
16 -27 36 -42 20 -15 64 -52 98 -82 122 -108 272 -189 396 -215 l59 -11 -35
-55 c-67 -106 -74 -148 -67 -412 9 -334 -16 -474 -93 -533 -50 -39 -152 -82
-247 -106 -107 -27 -362 -36 -519 -19 -301 32 -661 127 -1070 282 l-138 52 0
391 c0 773 35 2667 51 2770 57 367 339 741 744 985 231 140 616 288 883 340
76 15 77 17 86 155 4 55 9 118 13 140 l6 40 65 -137 c36 -76 69 -138 72 -138z"/>
<path d="M6040 8846 c-41 -13 -97 -33 -124 -45 -64 -28 -198 -116 -261 -171
-73 -64 -246 -174 -323 -206 -37 -15 -69 -29 -72 -31 -10 -8 26 -22 86 -33 87
-17 131 -5 341 91 196 89 269 113 389 131 79 11 96 10 250 -16 91 -15 168 -26
170 -23 3 2 -20 23 -51 46 l-55 42 16 31 c21 41 21 110 0 143 -45 68 -216 87
-366 41z"/>
<path d="M5983 8510 c-79 -14 -232 -67 -288 -99 -27 -15 -71 -40 -96 -54 -54
-31 -140 -45 -226 -37 -76 7 -72 1 38 -70 103 -66 248 -136 324 -155 255 -65
521 -26 586 87 21 37 24 56 24 133 0 105 -21 161 -70 185 -36 17 -215 23 -292
10z m30 -82 c4 -29 9 -117 13 -195 l7 -143 -29 0 c-51 0 -197 20 -259 36 -65
16 -153 55 -255 112 l-65 36 35 7 c19 4 51 10 70 13 19 3 73 29 120 56 47 28
110 60 140 71 54 20 184 57 206 58 6 1 14 -23 17 -51z"/>
<path d="M6878 6920 c-70 -21 -128 -99 -128 -171 0 -57 14 -66 40 -27 81 118
154 152 245 114 45 -19 47 -2 4 42 -44 44 -102 60 -161 42z"/>
</g>
</svg>
