<?xml version="1.0"?>
<svg xmlns="http://www.w3.org/2000/svg" viewBox="0 0 50 50">
    <path fill="#c1c1c1" style="text-indent:0;text-align:start;line-height:normal;text-transform:none;block-progression:tb;-inkscape-font-specification:Sans" d="M 5.28125 2 A 1.0001 1.0001 0 0 0 4.46875 3.09375 L 8 42.53125 A 1.0001 1.0001 0 0 0 8.71875 43.375 L 24.71875 47.96875 A 1.0001 1.0001 0 0 0 25.28125 47.96875 L 41.28125 43.375 A 1.0001 1.0001 0 0 0 42 42.53125 L 45.53125 3.09375 A 1.0001 1.0001 0 0 0 44.53125 2 L 5.46875 2 A 1.0001 1.0001 0 0 0 5.375 2 A 1.0001 1.0001 0 0 0 5.28125 2 z M 6.5625 4 L 43.4375 4 L 40.09375 41.65625 L 25 45.9375 L 9.90625 41.65625 L 6.5625 4 z M 12.53125 10.0625 A 1.0001 1.0001 0 0 0 11.71875 11.15625 L 13.0625 25.9375 A 1.0001 1.0001 0 0 0 14.03125 26.875 L 30 26.875 L 29.5625 31.46875 L 25.03125 32.4375 L 20.4375 31.46875 L 20.28125 29.84375 A 1.0001 1.0001 0 0 0 19.28125 28.90625 L 14.40625 28.90625 A 1.0001 1.0001 0 0 0 13.40625 30 L 13.96875 36.125 A 1.0001 1.0001 0 0 0 14.65625 37 L 24.59375 40.03125 L 24.71875 40.0625 A 1.0001 1.0001 0 0 0 25.28125 40.0625 L 35.34375 37 A 1.0001 1.0001 0 0 0 36.0625 36.125 L 37.375 21.09375 A 1.0001 1.0001 0 0 0 36.40625 20 L 19.375 20 L 19.125 16.90625 L 36.84375 16.90625 A 1.0001 1.0001 0 0 0 37.84375 16 L 38.28125 11.15625 A 1.0001 1.0001 0 0 0 37.28125 10.0625 L 12.71875 10.0625 A 1.0001 1.0001 0 0 0 12.53125 10.0625 z M 13.8125 12.0625 L 36.1875 12.0625 L 35.9375 14.90625 L 18.03125 14.90625 A 1.0001 1.0001 0 0 0 17.03125 16 L 17.5 21.09375 A 1.0001 1.0001 0 0 0 18.46875 22 L 35.3125 22 L 34.125 35.28125 L 25 38.03125 L 15.875 35.28125 L 15.5 30.90625 L 18.375 30.90625 L 18.5 32.375 A 1.0001 1.0001 0 0 0 19.28125 33.28125 L 24.84375 34.4375 A 1.0001 1.0001 0 0 0 25.25 34.4375 L 30.71875 33.28125 A 1.0001 1.0001 0 0 0 31.5 32.375 L 32.09375 25.9375 A 1.0001 1.0001 0 0 0 31.09375 24.875 L 14.9375 24.875 L 13.8125 12.0625 z" overflow="visible" font-family="Sans"/>
</svg>
