<?xml version="1.0"?>
<svg xmlns="http://www.w3.org/2000/svg" viewBox="0 0 50 50">
    <path fill="#c1c1c1" style="line-height:normal;text-indent:0;text-align:start;text-decoration-line:none;text-decoration-style:solid;text-decoration-color:#000;text-transform:none;block-progression:tb;isolation:auto;mix-blend-mode:normal" d="M 6.6679688 4 C 5.2057125 4 4 5.2057125 4 6.6679688 L 4 43.332031 C 4 44.794288 5.2057125 46 6.6679688 46 L 43.332031 46 C 44.794288 46 46 44.795836 46 43.333984 L 46 6.6679688 C 46 5.2057125 44.795836 4 43.333984 4 L 6.6679688 4 z M 6.6679688 6 L 43.333984 6 C 43.704133 6 44 6.2962249 44 6.6679688 L 44 43.333984 C 44 43.704133 43.703775 44 43.332031 44 L 6.6679688 44 C 6.296225 44 6 43.703775 6 43.332031 L 6 6.6679688 C 6 6.296225 6.2962249 6 6.6679688 6 z M 23 23 L 23 35.574219 C 23 37.504219 22.269 38 21 38 C 19.673 38 18.749578 37.173656 18.142578 36.097656 L 15 38 C 15.91 39.927 18.142375 42 21.234375 42 C 24.656375 42 27 40.179641 27 36.181641 L 27 23 L 23 23 z M 35.453125 23.001953 C 32.045125 23.001953 29.865234 25.179016 29.865234 28.041016 C 29.865234 31.147016 31.694266 32.616062 34.447266 33.789062 L 35.402344 34.199219 C 37.142344 34.960219 38 35.424422 38 36.732422 C 38 37.824422 37.170844 38.613281 35.589844 38.613281 C 33.707844 38.613281 32.818 37.335 32 36 L 29 38 C 30.12 40.213 32.133734 42 35.677734 42 C 39.301734 42 42 40.118594 42 36.683594 C 42 33.496594 40.170734 32.078453 36.927734 30.689453 L 35.972656 30.28125 C 34.335656 29.57225 33.626953 29.109844 33.626953 27.964844 C 33.626953 27.038844 34.335125 26.328125 35.453125 26.328125 C 36.549125 26.328125 37.254203 26.791844 37.908203 27.964844 L 40.880859 26.056641 C 39.623859 23.845641 37.879125 23.001953 35.453125 23.001953 z" font-weight="400" font-family="sans-serif" white-space="normal" overflow="visible"/>
</svg>
